<svg width="162" height="60" viewBox="0 0 162 60" fill="none" xmlns="http://www.w3.org/2000/svg">
<path d="M57.1875 11.5714H3.8125C1.70691 11.5714 0 13.2983 0 15.4286V50.1428C0 52.2731 1.70691 54 3.8125 54H57.1875C59.2931 54 61 52.2731 61 50.1428V15.4286C61 13.2983 59.2931 11.5714 57.1875 11.5714Z" fill="#EBEFF1"/>
<path d="M41.9375 3.85714V11.5714H38.125V4.82143C38.125 4.56568 38.0246 4.32041 37.8458 4.13958C37.6671 3.95874 37.4247 3.85714 37.1719 3.85714H23.8281C23.5753 3.85714 23.3329 3.95874 23.1542 4.13958C22.9754 4.32041 22.875 4.56568 22.875 4.82143V11.5714H19.0625V3.85714C19.0625 2.83416 19.4642 1.85309 20.1792 1.12973C20.8941 0.406376 21.8639 0 22.875 0L38.125 0C39.1361 0 40.1059 0.406376 40.8208 1.12973C41.5358 1.85309 41.9375 2.83416 41.9375 3.85714Z" fill="#B0BEC5"/>
<path d="M13.3438 11.5714H7.625V54H13.3438V11.5714Z" fill="#CFD8DD"/>
<path d="M53.375 11.5714H47.6562V54H53.375V11.5714Z" fill="#CFD8DD"/>
<path d="M32.4062 21.2143H28.5938C27.541 21.2143 26.6875 22.0777 26.6875 23.1429V42.4286C26.6875 43.4937 27.541 44.3571 28.5938 44.3571H32.4062C33.459 44.3571 34.3125 43.4937 34.3125 42.4286V23.1429C34.3125 22.0777 33.459 21.2143 32.4062 21.2143Z" fill="#FF2400"/>
<path d="M41.9375 34.7143V30.8571C41.9375 29.792 41.084 28.9286 40.0312 28.9286H20.9688C19.916 28.9286 19.0625 29.792 19.0625 30.8571V34.7143C19.0625 35.7794 19.916 36.6429 20.9688 36.6429H40.0312C41.084 36.6429 41.9375 35.7794 41.9375 34.7143Z" fill="#FF2400"/>
<path d="M77.0772 2.33071C78.5079 2.33071 79.7913 2.65682 80.9274 3.30904C82.0636 3.94022 82.9577 4.88699 83.61 6.14935C84.2622 7.39067 84.5883 8.89499 84.5883 10.6623C84.5883 12.3875 84.2622 13.8813 83.61 15.1437C82.9577 16.406 82.053 17.3739 80.8959 18.0471C79.7597 18.7204 78.4763 19.057 77.0457 19.057H72.0909V21.2661L72.2803 26H68.6194L68.8403 21.2661V6.90677L68.6194 2.33071H77.0772ZM76.0358 15.9642C77.8452 15.9642 79.1496 15.554 79.9491 14.7334C80.7696 13.8918 81.1799 12.5348 81.1799 10.6623C81.1799 8.85291 80.7696 7.52743 79.9491 6.68586C79.1496 5.84428 77.8662 5.42349 76.0989 5.42349H72.0909V15.9642H76.0358ZM98.3789 21.2661V12.9345C98.3789 10.7885 97.4216 9.71553 95.507 9.71553C94.7075 9.71553 93.8659 9.94696 92.9823 10.4098C92.0986 10.8517 91.4253 11.4408 90.9625 12.1771V21.2661L91.1834 26H87.5857L87.8066 21.2661V5.32882L87.5857 0.752754H91.1834L90.9625 5.32882V9.58929C91.5305 8.72667 92.33 8.05341 93.361 7.56951C94.4129 7.0856 95.5385 6.84365 96.7378 6.84365C98.2316 6.84365 99.3993 7.31704 100.241 8.26381C101.103 9.18954 101.535 10.5045 101.535 12.2087V21.2661L101.756 26H98.1579L98.3789 21.2661ZM105.089 20.7296C105.089 19.4883 105.363 18.3837 105.91 17.4159C106.478 16.4271 107.246 15.6591 108.214 15.1121C109.203 14.5651 110.297 14.2916 111.496 14.2916C112.443 14.2916 113.379 14.3863 114.305 14.5756C115.251 14.765 115.998 15.0174 116.545 15.333V13.4711C116.545 12.1877 116.198 11.2409 115.504 10.6307C114.831 10.0206 113.779 9.71553 112.348 9.71553C111.065 9.71553 109.907 9.95748 108.876 10.4414C107.867 10.9043 107.078 11.567 106.51 12.4296L106.162 12.3665L106.604 8.80031C107.32 8.10601 108.214 7.56951 109.287 7.1908C110.381 6.81209 111.559 6.62274 112.821 6.62274C114.988 6.62274 116.672 7.15924 117.871 8.23225C119.091 9.28422 119.701 10.7991 119.701 12.7768V21.2977L119.922 26H116.64L116.545 24.1065C116.167 24.7376 115.451 25.2952 114.399 25.7791C113.347 26.263 112.274 26.5049 111.18 26.5049C109.266 26.5049 107.772 26 106.699 24.9901C105.626 23.9592 105.089 22.539 105.089 20.7296ZM108.371 20.4456C108.371 21.5817 108.613 22.3917 109.097 22.8757C109.602 23.3596 110.465 23.6015 111.685 23.6015C112.506 23.6015 113.41 23.4227 114.399 23.065C115.409 22.7073 116.124 22.2971 116.545 21.8342V18.268C116.04 17.9524 115.336 17.6894 114.431 17.4791C113.526 17.2687 112.611 17.1635 111.685 17.1635C110.528 17.1635 109.686 17.437 109.16 17.984C108.634 18.531 108.371 19.3516 108.371 20.4456ZM131.779 6.84365C133.294 6.84365 134.346 6.99093 134.935 7.28548L134.43 10.0627L134.02 10.3467C133.767 10.1574 133.357 9.99956 132.789 9.87332C132.221 9.74708 131.642 9.68397 131.053 9.68397C129.496 9.68397 128.276 10.3257 127.392 11.6091V21.2661L127.613 26H124.015L124.236 21.2661V11.6406L124.015 7.06456H126.761L127.329 9.21058C127.855 8.45316 128.507 7.87458 129.286 7.47483C130.064 7.05404 130.895 6.84365 131.779 6.84365ZM157.628 21.2661V12.9345C157.628 11.8405 157.397 11.0305 156.934 10.5045C156.471 9.97852 155.745 9.71553 154.756 9.71553C154.146 9.71553 153.484 9.8628 152.768 10.1574C152.074 10.4519 151.464 10.8411 150.938 11.325C150.959 11.5144 150.969 11.8089 150.969 12.2087V21.2661L151.159 26H147.592L147.813 21.2661V12.9345C147.813 11.8615 147.571 11.062 147.088 10.5361C146.625 9.98904 145.899 9.71553 144.91 9.71553C144.3 9.71553 143.648 9.8628 142.953 10.1574C142.259 10.4309 141.649 10.8201 141.123 11.325V21.2661L141.344 26H137.746L137.967 21.2661V11.6406L137.746 7.06456H140.492L140.965 8.95811C141.575 8.30589 142.343 7.79042 143.269 7.41171C144.195 7.03301 145.152 6.84365 146.141 6.84365C147.151 6.84365 148.024 7.06456 148.76 7.50639C149.497 7.92718 150.054 8.54784 150.433 9.36838C151.022 8.58992 151.811 7.97978 152.8 7.53795C153.81 7.07508 154.872 6.84365 155.987 6.84365C157.481 6.84365 158.649 7.30652 159.49 8.23225C160.353 9.15798 160.784 10.4835 160.784 12.2087V21.2661L161.005 26H157.439L157.628 21.2661ZM88.3438 48.2661V39.9345C88.3438 38.8405 88.1124 38.0305 87.6495 37.5045C87.1866 36.9785 86.4608 36.7155 85.4719 36.7155C84.8618 36.7155 84.1991 36.8628 83.4837 37.1574C82.7894 37.4519 82.1793 37.8411 81.6533 38.325C81.6743 38.5144 81.6849 38.8089 81.6849 39.2087V48.2661L81.8742 53H78.308L78.5289 48.2661V39.9345C78.5289 38.8615 78.287 38.062 77.8031 37.5361C77.3402 36.989 76.6144 36.7155 75.6255 36.7155C75.0154 36.7155 74.3632 36.8628 73.6689 37.1574C72.9746 37.4309 72.3644 37.8201 71.8384 38.325V48.2661L72.0593 53H68.4616L68.6825 48.2661V38.6406L68.4616 34.0646H71.2072L71.6806 35.9581C72.2908 35.3059 73.0587 34.7904 73.9844 34.4117C74.9102 34.033 75.8675 33.8437 76.8563 33.8437C77.8662 33.8437 78.7393 34.0646 79.4757 34.5064C80.2121 34.9272 80.7696 35.5478 81.1483 36.3684C81.7375 35.5899 82.5264 34.9798 83.5153 34.538C84.5252 34.0751 85.5877 33.8437 86.7027 33.8437C88.1965 33.8437 89.3642 34.3065 90.2058 35.2323C91.0684 36.158 91.4997 37.4835 91.4997 39.2087V48.2661L91.7206 53H88.1545L88.3438 48.2661ZM110.583 34.0646L108.911 38.6406L104.429 53C103.23 56.0297 101.526 58.3019 99.3167 59.8168L96.6658 57.3552L96.8551 56.9133C97.5705 56.724 98.37 56.2295 99.2536 55.43C100.158 54.6516 100.811 53.8416 101.21 53H100.169L95.8137 38.6406L94.1095 34.0646H98.1806L99.1905 38.6406L102.346 50.1912L105.534 38.6406L106.544 34.0646H110.583Z" fill="#4CE59C"/>
<path d="M80.9274 3.30904L80.4295 4.17637L80.4418 4.18319L80.9274 3.30904ZM83.61 6.14935L82.7215 6.60838L82.7247 6.61448L83.61 6.14935ZM80.8959 18.0471L80.393 17.1827L80.3861 17.1868L80.8959 18.0471ZM72.0909 19.057V18.057H71.0909V19.057H72.0909ZM72.0909 21.2661H71.0909V21.2861L71.0917 21.3061L72.0909 21.2661ZM72.2803 26V27H73.3211L73.2795 25.96L72.2803 26ZM68.6194 26L67.6205 25.9534L67.5716 27H68.6194V26ZM68.8403 21.2661L69.8392 21.3128L69.8403 21.2895V21.2661H68.8403ZM68.8403 6.90677H69.8403V6.88265L69.8392 6.85855L68.8403 6.90677ZM68.6194 2.33071V1.33071H67.57L67.6206 2.37892L68.6194 2.33071ZM79.9491 14.7334L79.2331 14.0353L79.2329 14.0356L79.9491 14.7334ZM79.9491 6.68586L79.224 7.37466L79.2331 7.38396L79.9491 6.68586ZM72.0909 5.42349V4.42349H71.0909V5.42349H72.0909ZM72.0909 15.9642H71.0909V16.9642H72.0909V15.9642ZM77.0772 3.33071C78.3498 3.33071 79.4587 3.61893 80.4296 4.17629L81.4253 2.44178C80.1239 1.6947 78.6661 1.33071 77.0772 1.33071V3.33071ZM80.4418 4.18319C81.3897 4.70979 82.1509 5.50402 82.7215 6.60837L84.4984 5.69033C83.7645 4.26996 82.7375 3.17064 81.4131 2.43488L80.4418 4.18319ZM82.7247 6.61448C83.2845 7.6798 83.5883 9.01578 83.5883 10.6623H85.5883C85.5883 8.7742 85.2399 7.10155 84.4952 5.68422L82.7247 6.61448ZM83.5883 10.6623C83.5883 12.2616 83.2863 13.5915 82.7215 14.6847L84.4984 15.6027C85.238 14.1712 85.5883 12.5134 85.5883 10.6623H83.5883ZM82.7215 14.6847C82.151 15.7888 81.3754 16.6112 80.393 17.1828L81.3988 18.9115C82.7306 18.1366 83.7644 17.0232 84.4984 15.6027L82.7215 14.6847ZM80.3861 17.1868C79.417 17.7611 78.3124 18.057 77.0457 18.057V20.057C78.6403 20.057 80.1024 19.6797 81.4057 18.9074L80.3861 17.1868ZM77.0457 18.057H72.0909V20.057H77.0457V18.057ZM71.0909 19.057V21.2661H73.0909V19.057H71.0909ZM71.0917 21.3061L71.2811 26.04L73.2795 25.96L73.0901 21.2262L71.0917 21.3061ZM72.2803 25H68.6194V27H72.2803V25ZM69.6183 26.0466L69.8392 21.3128L67.8414 21.2195L67.6205 25.9534L69.6183 26.0466ZM69.8403 21.2661V6.90677H67.8403V21.2661H69.8403ZM69.8392 6.85855L69.6182 2.28249L67.6206 2.37892L67.8415 6.95499L69.8392 6.85855ZM68.6194 3.33071H77.0772V1.33071H68.6194V3.33071ZM76.0358 16.9642C77.9631 16.9642 79.593 16.5318 80.6653 15.4313L79.2329 14.0356C78.7062 14.5761 77.7273 14.9642 76.0358 14.9642V16.9642ZM80.6651 15.4315C81.7502 14.3186 82.1799 12.6471 82.1799 10.6623H80.1799C80.1799 12.4225 79.7891 13.4651 79.2331 14.0353L80.6651 15.4315ZM82.1799 10.6623C82.1799 8.72914 81.7451 7.09541 80.6651 5.98776L79.2331 7.38396C79.7942 7.95945 80.1799 8.97668 80.1799 10.6623H82.1799ZM80.6741 5.99711C79.6064 4.87325 77.9985 4.42349 76.0989 4.42349V6.42349C77.7339 6.42349 78.6928 6.81531 79.2241 7.37461L80.6741 5.99711ZM76.0989 4.42349H72.0909V6.42349H76.0989V4.42349ZM71.0909 5.42349V15.9642H73.0909V5.42349H71.0909ZM72.0909 16.9642H76.0358V14.9642H72.0909V16.9642ZM98.3789 21.2661L99.3778 21.3128L99.3789 21.2895V21.2661H98.3789ZM92.9823 10.4098L93.4295 11.3043L93.4379 11.3L93.4463 11.2957L92.9823 10.4098ZM90.9625 12.1771L90.1158 11.645L89.9625 11.8889V12.1771H90.9625ZM90.9625 21.2661H89.9625V21.2895L89.9636 21.3128L90.9625 21.2661ZM91.1834 26V27H92.2311L92.1823 25.9534L91.1834 26ZM87.5857 26L86.5867 25.9534L86.5379 27H87.5857V26ZM87.8066 21.2661L88.8055 21.3128L88.8066 21.2895V21.2661H87.8066ZM87.8066 5.32882H88.8066V5.30469L88.8054 5.2806L87.8066 5.32882ZM87.5857 0.752754V-0.247246H86.5362L86.5868 0.800974L87.5857 0.752754ZM91.1834 0.752754L92.1822 0.800974L92.2328 -0.247246H91.1834V0.752754ZM90.9625 5.32882L89.9636 5.2806L89.9625 5.30469V5.32882H90.9625ZM90.9625 9.58929H89.9625V12.926L91.7976 10.1393L90.9625 9.58929ZM93.361 7.56951L92.943 6.66099L92.9361 6.66427L93.361 7.56951ZM100.241 8.26381L99.4934 8.92817L99.5012 8.93695L99.5092 8.94553L100.241 8.26381ZM101.535 21.2661H100.535V21.2895L100.536 21.3128L101.535 21.2661ZM101.756 26V27H102.803L102.755 25.9534L101.756 26ZM98.1579 26L97.159 25.9534L97.1102 27H98.1579V26ZM99.3789 21.2661V12.9345H97.3789V21.2661H99.3789ZM99.3789 12.9345C99.3789 11.7337 99.1135 10.6464 98.4071 9.85456C97.6813 9.04101 96.6498 8.71553 95.507 8.71553V10.7155C96.2787 10.7155 96.6832 10.9265 96.9147 11.186C97.1656 11.4672 97.3789 11.9893 97.3789 12.9345H99.3789ZM95.507 8.71553C94.5107 8.71553 93.5103 9.00435 92.5182 9.52399L93.4463 11.2957C94.2215 10.8896 94.9043 10.7155 95.507 10.7155V8.71553ZM92.535 9.5154C91.5103 10.0277 90.6889 10.7333 90.1158 11.645L91.8091 12.7093C92.1618 12.1482 92.6869 11.6756 93.4295 11.3043L92.535 9.5154ZM89.9625 12.1771V21.2661H91.9625V12.1771H89.9625ZM89.9636 21.3128L90.1845 26.0466L92.1823 25.9534L91.9614 21.2195L89.9636 21.3128ZM91.1834 25H87.5857V27H91.1834V25ZM88.5846 26.0466L88.8055 21.3128L86.8077 21.2195L86.5867 25.9534L88.5846 26.0466ZM88.8066 21.2661V5.32882H86.8066V21.2661H88.8066ZM88.8054 5.2806L88.5845 0.704534L86.5868 0.800974L86.8077 5.37704L88.8054 5.2806ZM87.5857 1.75275H91.1834V-0.247246H87.5857V1.75275ZM90.1846 0.704534L89.9636 5.2806L91.9613 5.37704L92.1822 0.800974L90.1846 0.704534ZM89.9625 5.32882V9.58929H91.9625V5.32882H89.9625ZM91.7976 10.1393C92.2541 9.44616 92.9042 8.88861 93.7859 8.47475L92.9361 6.66427C91.7559 7.21822 90.807 8.00719 90.1273 9.0393L91.7976 10.1393ZM93.7789 8.478C94.695 8.05656 95.6775 7.84365 96.7378 7.84365V5.84365C95.3996 5.84365 94.1308 6.11465 92.9431 6.66102L93.7789 8.478ZM96.7378 7.84365C98.0021 7.84365 98.876 8.23355 99.4934 8.92817L100.988 7.59944C99.9225 6.40052 98.461 5.84365 96.7378 5.84365V7.84365ZM99.5092 8.94553C100.147 9.62976 100.535 10.6681 100.535 12.2087H102.535C102.535 10.3409 102.06 8.74932 100.972 7.58208L99.5092 8.94553ZM100.535 12.2087V21.2661H102.535V12.2087H100.535ZM100.536 21.3128L100.757 26.0466L102.755 25.9534L102.534 21.2195L100.536 21.3128ZM101.756 25H98.1579V27H101.756V25ZM99.1569 26.0466L99.3778 21.3128L97.3799 21.2195L97.159 25.9534L99.1569 26.0466ZM105.91 17.4159L105.043 16.9178L105.039 16.9239L105.91 17.4159ZM108.214 15.1121L107.73 14.2371L107.722 14.2416L108.214 15.1121ZM114.305 14.5756L114.104 15.5553L114.108 15.5562L114.305 14.5756ZM116.545 15.333L116.046 16.1992L117.545 17.0644V15.333H116.545ZM115.504 10.6307L114.832 11.3717L114.838 11.3769L114.844 11.3819L115.504 10.6307ZM108.876 10.4414L109.293 11.3505L109.301 11.3466L108.876 10.4414ZM106.51 12.4296L106.331 13.4135L106.981 13.5317L107.345 12.9796L106.51 12.4296ZM106.162 12.3665L105.17 12.2435L105.054 13.1813L105.983 13.3504L106.162 12.3665ZM106.604 8.80031L105.908 8.08273L105.655 8.32795L105.612 8.67736L106.604 8.80031ZM109.287 7.1908L108.96 6.2458L108.954 6.24781L109.287 7.1908ZM117.871 8.23225L117.204 8.97749L117.211 8.98364L117.218 8.98966L117.871 8.23225ZM119.701 21.2977H118.701V21.3212L118.702 21.3446L119.701 21.2977ZM119.922 26V27H120.97L120.921 25.9531L119.922 26ZM116.64 26L115.641 26.0499L115.689 27H116.64V26ZM116.545 24.1065L117.544 24.0565L117.38 20.7719L115.688 23.592L116.545 24.1065ZM114.399 25.7791L113.981 24.8706L113.981 24.8706L114.399 25.7791ZM106.699 24.9901L106.006 25.7113L106.013 25.7183L106.699 24.9901ZM109.097 22.8757L108.39 23.5828L108.398 23.5903L108.405 23.5976L109.097 22.8757ZM114.399 23.065L114.065 22.1224L114.059 22.1246L114.399 23.065ZM116.545 21.8342L117.285 22.5069L117.545 22.2208V21.8342H116.545ZM116.545 18.268H117.545V17.7138L117.075 17.42L116.545 18.268ZM114.431 17.4791L114.657 16.505L114.657 16.505L114.431 17.4791ZM109.16 17.984L109.881 18.6771L109.881 18.6771L109.16 17.984ZM106.089 20.7296C106.089 19.6402 106.328 18.7088 106.78 17.908L105.039 16.9239C104.398 18.0587 104.089 19.3364 104.089 20.7296H106.089ZM106.777 17.9141C107.258 17.0765 107.898 16.4391 108.706 15.9827L107.722 14.2416C106.593 14.8792 105.698 15.7776 105.043 16.9178L106.777 17.9141ZM108.698 15.9872C109.529 15.5271 110.455 15.2916 111.496 15.2916V13.2916C110.138 13.2916 108.876 13.6031 107.73 14.2371L108.698 15.9872ZM111.496 15.2916C112.375 15.2916 113.245 15.3795 114.104 15.5553L114.505 13.5959C113.513 13.393 112.51 13.2916 111.496 13.2916V15.2916ZM114.108 15.5562C114.999 15.7343 115.629 15.9588 116.046 16.1992L117.045 14.4669C116.368 14.0761 115.504 13.7957 114.501 13.595L114.108 15.5562ZM117.545 15.333V13.4711H115.545V15.333H117.545ZM117.545 13.4711C117.545 12.0162 117.148 10.7447 116.164 9.87957L114.844 11.3819C115.248 11.737 115.545 12.3591 115.545 13.4711H117.545ZM116.175 9.88975C115.237 9.03978 113.891 8.71553 112.348 8.71553V10.7155C113.667 10.7155 114.424 11.0014 114.832 11.3717L116.175 9.88975ZM112.348 8.71553C110.936 8.71553 109.631 8.98234 108.452 9.53615L109.301 11.3466C110.183 10.9326 111.193 10.7155 112.348 10.7155V8.71553ZM108.46 9.53232C107.293 10.0671 106.353 10.8486 105.674 11.8796L107.345 12.9796C107.802 12.2854 108.44 11.7414 109.293 11.3504L108.46 9.53232ZM106.688 11.4457L106.341 11.3826L105.983 13.3504L106.331 13.4135L106.688 11.4457ZM107.155 12.4894L107.597 8.92327L105.612 8.67736L105.17 12.2435L107.155 12.4894ZM107.301 9.51789C107.899 8.93738 108.663 8.47127 109.62 8.13379L108.954 6.24781C107.764 6.66775 106.74 7.27465 105.908 8.08273L107.301 9.51789ZM109.614 8.13579C110.594 7.79664 111.66 7.62274 112.821 7.62274V5.62274C111.458 5.62274 110.168 5.82754 108.96 6.24582L109.614 8.13579ZM112.821 7.62274C114.829 7.62274 116.244 8.11821 117.204 8.97749L118.538 7.48701C117.099 6.20027 115.148 5.62274 112.821 5.62274V7.62274ZM117.218 8.98966C118.168 9.80918 118.701 11.0179 118.701 12.7768H120.701C120.701 10.5802 120.014 8.75926 118.524 7.47484L117.218 8.98966ZM118.701 12.7768V21.2977H120.701V12.7768H118.701ZM118.702 21.3446L118.923 26.0469L120.921 25.9531L120.7 21.2508L118.702 21.3446ZM119.922 25H116.64V27H119.922V25ZM117.639 25.9501L117.544 24.0565L115.547 24.1564L115.641 26.0499L117.639 25.9501ZM115.688 23.592C115.456 23.9776 114.947 24.4263 113.981 24.8706L114.817 26.6876C115.955 26.1641 116.877 25.4977 117.403 24.621L115.688 23.592ZM113.981 24.8706C113.053 25.2978 112.122 25.5049 111.18 25.5049V27.5049C112.427 27.5049 113.642 27.2282 114.817 26.6876L113.981 24.8706ZM111.18 25.5049C109.442 25.5049 108.221 25.0498 107.384 24.2619L106.013 25.7183C107.322 26.9502 109.09 27.5049 111.18 27.5049V25.5049ZM107.392 24.269C106.556 23.4663 106.089 22.3299 106.089 20.7296H104.089C104.089 22.7481 104.696 24.4521 106.006 25.7112L107.392 24.269ZM107.371 20.4456C107.371 21.6811 107.627 22.8199 108.39 23.5828L109.804 22.1685C109.6 21.9636 109.371 21.4824 109.371 20.4456H107.371ZM108.405 23.5976C109.194 24.3531 110.384 24.6015 111.685 24.6015V22.6015C110.546 22.6015 110.011 22.366 109.789 22.1537L108.405 23.5976ZM111.685 24.6015C112.649 24.6015 113.671 24.3919 114.739 24.0054L114.059 22.1246C113.15 22.4534 112.362 22.6015 111.685 22.6015V24.6015ZM114.733 24.0076C115.802 23.6291 116.7 23.1501 117.285 22.5069L115.805 21.1615C115.549 21.444 115.016 21.7856 114.065 22.1224L114.733 24.0076ZM117.545 21.8342V18.268H115.545V21.8342H117.545ZM117.075 17.42C116.44 17.0228 115.616 16.7281 114.657 16.505L114.204 18.4531C115.055 18.6508 115.641 18.8821 116.015 19.116L117.075 17.42ZM114.657 16.505C113.679 16.2774 112.687 16.1635 111.685 16.1635V18.1635C112.534 18.1635 113.374 18.2599 114.204 18.4531L114.657 16.505ZM111.685 16.1635C110.397 16.1635 109.234 16.4653 108.44 17.2909L109.881 18.6771C110.139 18.4087 110.659 18.1635 111.685 18.1635V16.1635ZM108.44 17.2909C107.669 18.0927 107.371 19.207 107.371 20.4456H109.371C109.371 19.4961 109.6 18.9694 109.881 18.6771L108.44 17.2909ZM134.935 7.28548L135.919 7.46436L136.053 6.72646L135.382 6.39105L134.935 7.28548ZM134.43 10.0627L134.999 10.8849L135.34 10.6491L135.414 10.2416L134.43 10.0627ZM134.02 10.3467L133.42 11.1467L133.996 11.5792L134.589 11.1689L134.02 10.3467ZM132.789 9.87332L133.006 8.89713L133.006 8.89713L132.789 9.87332ZM127.392 11.6091L126.569 11.042L126.392 11.2981V11.6091H127.392ZM127.392 21.2661H126.392V21.2895L126.393 21.3128L127.392 21.2661ZM127.613 26V27H128.661L128.612 25.9534L127.613 26ZM124.015 26L123.016 25.9534L122.968 27H124.015V26ZM124.236 21.2661L125.235 21.3128L125.236 21.2895V21.2661H124.236ZM124.236 11.6406H125.236V11.6165L125.235 11.5924L124.236 11.6406ZM124.015 7.06456V6.06456H122.966L123.017 7.11278L124.015 7.06456ZM126.761 7.06456L127.728 6.80867L127.531 6.06456H126.761V7.06456ZM127.329 9.21058L126.362 9.46647L126.916 11.5584L128.15 9.78098L127.329 9.21058ZM129.286 7.47483L129.743 8.3644L129.752 8.35957L129.761 8.35454L129.286 7.47483ZM131.779 7.84365C133.29 7.84365 134.129 8.00036 134.488 8.1799L135.382 6.39105C134.563 5.98149 133.297 5.84365 131.779 5.84365V7.84365ZM133.951 7.10659L133.446 9.88379L135.414 10.2416L135.919 7.46436L133.951 7.10659ZM133.861 9.24048L133.45 9.52451L134.589 11.1689L134.999 10.8849L133.861 9.24048ZM134.62 9.54671C134.194 9.22754 133.615 9.03251 133.006 8.89713L132.572 10.8495C133.099 10.9666 133.34 11.0872 133.42 11.1467L134.62 9.54671ZM133.006 8.89713C132.366 8.75487 131.714 8.68397 131.053 8.68397V10.684C131.57 10.684 132.076 10.7393 132.572 10.8495L133.006 8.89713ZM131.053 8.68397C129.167 8.68397 127.639 9.48781 126.569 11.042L128.216 12.1762C128.913 11.1635 129.826 10.684 131.053 10.684V8.68397ZM126.392 11.6091V21.2661H128.392V11.6091H126.392ZM126.393 21.3128L126.614 26.0466L128.612 25.9534L128.391 21.2195L126.393 21.3128ZM127.613 25H124.015V27H127.613V25ZM125.014 26.0466L125.235 21.3128L123.237 21.2195L123.016 25.9534L125.014 26.0466ZM125.236 21.2661V11.6406H123.236V21.2661H125.236ZM125.235 11.5924L125.014 7.01635L123.017 7.11278L123.237 11.6888L125.235 11.5924ZM124.015 8.06456H126.761V6.06456H124.015V8.06456ZM125.794 7.32046L126.362 9.46647L128.296 8.95469L127.728 6.80867L125.794 7.32046ZM128.15 9.78098C128.588 9.15075 129.118 8.6852 129.743 8.3644L128.829 6.58527C127.897 7.06396 127.122 7.75557 126.508 8.64019L128.15 9.78098ZM129.761 8.35454C130.394 8.01259 131.062 7.84365 131.779 7.84365V5.84365C130.729 5.84365 129.735 6.0955 128.81 6.59513L129.761 8.35454ZM157.628 21.2661L158.627 21.3061L158.628 21.2861V21.2661H157.628ZM156.934 10.5045L157.685 9.84388L157.685 9.84387L156.934 10.5045ZM152.768 10.1574L152.387 9.23262L152.378 9.23677L152.768 10.1574ZM150.938 11.325L150.261 10.5891L149.888 10.932L149.944 11.4355L150.938 11.325ZM150.969 21.2661H149.969V21.2861L149.97 21.3061L150.969 21.2661ZM151.159 26V27H152.199L152.158 25.96L151.159 26ZM147.592 26L146.594 25.9534L146.545 27H147.592V26ZM147.813 21.2661L148.812 21.3128L148.813 21.2895V21.2661H147.813ZM147.088 10.5361L146.324 11.182L146.338 11.1978L146.352 11.2131L147.088 10.5361ZM142.953 10.1574L143.32 11.0878L143.332 11.083L143.344 11.0779L142.953 10.1574ZM141.123 11.325L140.43 10.6036L140.123 10.8988V11.325H141.123ZM141.123 21.2661H140.123V21.2895L140.124 21.3128L141.123 21.2661ZM141.344 26V27H142.392L142.343 25.9534L141.344 26ZM137.746 26L136.747 25.9534L136.698 27H137.746V26ZM137.967 21.2661L138.966 21.3128L138.967 21.2895V21.2661H137.967ZM137.967 11.6406H138.967V11.6165L138.966 11.5924L137.967 11.6406ZM137.746 7.06456V6.06456H136.697L136.747 7.11278L137.746 7.06456ZM140.492 7.06456L141.462 6.82203L141.272 6.06456H140.492V7.06456ZM140.965 8.95811L139.995 9.20064L140.44 10.9827L141.695 9.64127L140.965 8.95811ZM143.269 7.41171L143.648 8.33726L143.648 8.33726L143.269 7.41171ZM148.76 7.50639L148.246 8.36388L148.255 8.36936L148.264 8.37463L148.76 7.50639ZM150.433 9.36838L149.525 9.78743L150.224 11.3018L151.23 9.97182L150.433 9.36838ZM152.8 7.53795L153.208 8.451L153.216 8.44702L152.8 7.53795ZM159.49 8.23225L158.75 8.90497L158.759 8.91398L159.49 8.23225ZM160.784 21.2661H159.784V21.2895L159.785 21.3128L160.784 21.2661ZM161.005 26V27H162.053L162.004 25.9534L161.005 26ZM157.439 26L156.44 25.96L156.398 27H157.439V26ZM158.628 21.2661V12.9345H156.628V21.2661H158.628ZM158.628 12.9345C158.628 11.7276 158.377 10.631 157.685 9.84388L156.183 11.1651C156.416 11.43 156.628 11.9534 156.628 12.9345H158.628ZM157.685 9.84387C156.964 9.02489 155.911 8.71553 154.756 8.71553V10.7155C155.58 10.7155 155.978 10.9321 156.183 11.1651L157.685 9.84387ZM154.756 8.71553C153.986 8.71553 153.192 8.90119 152.387 9.23267L153.149 11.082C153.775 10.8244 154.307 10.7155 154.756 10.7155V8.71553ZM152.378 9.23677C151.584 9.57353 150.875 10.0235 150.261 10.5891L151.615 12.061C152.052 11.6588 152.564 11.3303 153.159 11.0779L152.378 9.23677ZM149.944 11.4355C149.958 11.5667 149.969 11.815 149.969 12.2087H151.969C151.969 11.8029 151.959 11.4621 151.932 11.2146L149.944 11.4355ZM149.969 12.2087V21.2661H151.969V12.2087H149.969ZM149.97 21.3061L150.159 26.04L152.158 25.96L151.969 21.2262L149.97 21.3061ZM151.159 25H147.592V27H151.159V25ZM148.591 26.0466L148.812 21.3128L146.814 21.2195L146.594 25.9534L148.591 26.0466ZM148.813 21.2661V12.9345H146.813V21.2661H148.813ZM148.813 12.9345C148.813 11.7334 148.545 10.6434 147.823 9.859L146.352 11.2131C146.598 11.4807 146.813 11.9897 146.813 12.9345H148.813ZM147.851 9.89012C147.134 9.0423 146.076 8.71553 144.91 8.71553V10.7155C145.722 10.7155 146.116 10.9358 146.324 11.182L147.851 9.89012ZM144.91 8.71553C144.138 8.71553 143.352 8.90182 142.563 9.23677L143.344 11.0779C143.943 10.8238 144.462 10.7155 144.91 10.7155V8.71553ZM142.587 9.22694C141.774 9.54708 141.053 10.0063 140.43 10.6036L141.815 12.0464C142.245 11.6339 142.744 11.3147 143.32 11.0878L142.587 9.22694ZM140.123 11.325V21.2661H142.123V11.325H140.123ZM140.124 21.3128L140.345 26.0466L142.343 25.9534L142.122 21.2195L140.124 21.3128ZM141.344 25H137.746V27H141.344V25ZM138.745 26.0466L138.966 21.3128L136.968 21.2195L136.747 25.9534L138.745 26.0466ZM138.967 21.2661V11.6406H136.967V21.2661H138.967ZM138.966 11.5924L138.745 7.01635L136.747 7.11278L136.968 11.6888L138.966 11.5924ZM137.746 8.06456H140.492V6.06456H137.746V8.06456ZM139.522 7.3071L139.995 9.20064L141.935 8.71557L141.462 6.82203L139.522 7.3071ZM141.695 9.64127C142.196 9.10619 142.839 8.66801 143.648 8.33726L142.89 6.48617C141.847 6.91284 140.955 7.50558 140.235 8.27495L141.695 9.64127ZM143.648 8.33726C144.454 8.00714 145.283 7.84365 146.141 7.84365V5.84365C145.021 5.84365 143.935 6.05887 142.89 6.48617L143.648 8.33726ZM146.141 7.84365C147.002 7.84365 147.69 8.0306 148.246 8.36388L149.275 6.6489C148.357 6.09852 147.3 5.84365 146.141 5.84365V7.84365ZM148.264 8.37463C148.808 8.68525 149.227 9.14272 149.525 9.78743L151.341 8.94932C150.881 7.95296 150.185 7.16911 149.256 6.63815L148.264 8.37463ZM151.23 9.97182C151.707 9.34196 152.355 8.83173 153.208 8.45096L152.392 6.62494C151.266 7.12783 150.337 7.83788 149.635 8.76493L151.23 9.97182ZM153.216 8.44702C154.095 8.0443 155.015 7.84365 155.987 7.84365V5.84365C154.729 5.84365 153.524 6.10587 152.383 6.62889L153.216 8.44702ZM155.987 7.84365C157.259 7.84365 158.135 8.22797 158.75 8.90492L160.23 7.55958C159.162 6.38507 157.703 5.84365 155.987 5.84365V7.84365ZM158.759 8.91398C159.394 9.59611 159.784 10.6432 159.784 12.2087H161.784C161.784 10.3237 161.311 8.71985 160.222 7.55052L158.759 8.91398ZM159.784 12.2087V21.2661H161.784V12.2087H159.784ZM159.785 21.3128L160.006 26.0466L162.004 25.9534L161.783 21.2195L159.785 21.3128ZM161.005 25H157.439V27H161.005V25ZM158.438 26.04L158.627 21.3061L156.629 21.2262L156.44 25.96L158.438 26.04ZM88.3438 48.2661L89.343 48.3061L89.3438 48.2861V48.2661H88.3438ZM87.6495 37.5045L88.4002 36.8439L88.4002 36.8439L87.6495 37.5045ZM83.4837 37.1574L83.1029 36.2326L83.0932 36.2368L83.4837 37.1574ZM81.6533 38.325L80.9762 37.5891L80.6035 37.932L80.6594 38.4355L81.6533 38.325ZM81.6849 48.2661H80.6849V48.2861L80.6857 48.3061L81.6849 48.2661ZM81.8742 53V54H82.915L82.8734 52.96L81.8742 53ZM78.308 53L77.3091 52.9534L77.2603 54H78.308V53ZM78.5289 48.2661L79.5279 48.3128L79.5289 48.2895V48.2661H78.5289ZM77.8031 37.5361L77.0397 38.182L77.0531 38.1978L77.0672 38.2131L77.8031 37.5361ZM73.6689 37.1574L74.0354 38.0878L74.0475 38.083L74.0594 38.0779L73.6689 37.1574ZM71.8384 38.325L71.1459 37.6036L70.8384 37.8988V38.325H71.8384ZM71.8384 48.2661H70.8384V48.2895L70.8395 48.3128L71.8384 48.2661ZM72.0593 53V54H73.1071L73.0583 52.9534L72.0593 53ZM68.4616 53L67.4627 52.9534L67.4139 54H68.4616V53ZM68.6825 48.2661L69.6814 48.3128L69.6825 48.2895V48.2661H68.6825ZM68.6825 38.6406H69.6825V38.6165L69.6814 38.5924L68.6825 38.6406ZM68.4616 34.0646V33.0646H67.4122L67.4628 34.1128L68.4616 34.0646ZM71.2072 34.0646L72.1774 33.822L71.988 33.0646H71.2072V34.0646ZM71.6806 35.9581L70.7105 36.2006L71.156 37.9827L72.4109 36.6413L71.6806 35.9581ZM73.9844 34.4117L74.3631 35.3373L74.3631 35.3373L73.9844 34.4117ZM79.4757 34.5064L78.9612 35.3639L78.9703 35.3694L78.9796 35.3746L79.4757 34.5064ZM81.1483 36.3684L80.2404 36.7874L80.9393 38.3018L81.9458 36.9718L81.1483 36.3684ZM83.5153 34.538L83.9232 35.451L83.9319 35.447L83.5153 34.538ZM90.2058 35.2323L89.4658 35.905L89.4742 35.914L90.2058 35.2323ZM91.4997 48.2661H90.4997V48.2895L90.5008 48.3128L91.4997 48.2661ZM91.7206 53V54H92.7684L92.7195 52.9534L91.7206 53ZM88.1545 53L87.1553 52.96L87.1137 54H88.1545V53ZM89.3438 48.2661V39.9345H87.3438V48.2661H89.3438ZM89.3438 39.9345C89.3438 38.7276 89.0929 37.631 88.4002 36.8439L86.8988 38.1651C87.1319 38.43 87.3438 38.9534 87.3438 39.9345H89.3438ZM88.4002 36.8439C87.6795 36.0249 86.6261 35.7155 85.4719 35.7155V37.7155C86.2955 37.7155 86.6938 37.9321 86.8988 38.1651L88.4002 36.8439ZM85.4719 35.7155C84.7013 35.7155 83.908 35.9012 83.103 36.2327L83.8645 38.082C84.4901 37.8244 85.0223 37.7155 85.4719 37.7155V35.7155ZM83.0932 36.2368C82.2994 36.5735 81.591 37.0235 80.9762 37.5891L82.3303 39.061C82.7675 38.6588 83.2795 38.3303 83.8743 38.0779L83.0932 36.2368ZM80.6594 38.4355C80.674 38.5667 80.6849 38.815 80.6849 39.2087H82.6849C82.6849 38.8029 82.6747 38.4621 82.6472 38.2146L80.6594 38.4355ZM80.6849 39.2087V48.2661H82.6849V39.2087H80.6849ZM80.6857 48.3061L80.875 53.04L82.8734 52.96L82.6841 48.2262L80.6857 48.3061ZM81.8742 52H78.308V54H81.8742V52ZM79.3069 53.0466L79.5279 48.3128L77.53 48.2195L77.3091 52.9534L79.3069 53.0466ZM79.5289 48.2661V39.9345H77.5289V48.2661H79.5289ZM79.5289 39.9345C79.5289 38.7334 79.2607 37.6434 78.539 36.859L77.0672 38.2131C77.3133 38.4807 77.5289 38.9897 77.5289 39.9345H79.5289ZM78.5665 36.8901C77.8491 36.0423 76.7913 35.7155 75.6255 35.7155V37.7155C76.4374 37.7155 76.8314 37.9358 77.0397 38.182L78.5665 36.8901ZM75.6255 35.7155C74.8535 35.7155 74.0678 35.9018 73.2783 36.2368L74.0594 38.0779C74.6585 37.8238 75.1772 37.7155 75.6255 37.7155V35.7155ZM73.3023 36.2269C72.4897 36.5471 71.7681 37.0063 71.1459 37.6036L72.531 39.0464C72.9607 38.6339 73.4594 38.3147 74.0354 38.0878L73.3023 36.2269ZM70.8384 38.325V48.2661H72.8384V38.325H70.8384ZM70.8395 48.3128L71.0604 53.0466L73.0583 52.9534L72.8373 48.2195L70.8395 48.3128ZM72.0593 52H68.4616V54H72.0593V52ZM69.4605 53.0466L69.6814 48.3128L67.6836 48.2195L67.4627 52.9534L69.4605 53.0466ZM69.6825 48.2661V38.6406H67.6825V48.2661H69.6825ZM69.6814 38.5924L69.4604 34.0163L67.4628 34.1128L67.6837 38.6888L69.6814 38.5924ZM68.4616 35.0646H71.2072V33.0646H68.4616V35.0646ZM70.2371 34.3071L70.7105 36.2006L72.6508 35.7156L72.1774 33.822L70.2371 34.3071ZM72.4109 36.6413C72.9115 36.1062 73.5546 35.668 74.3631 35.3373L73.6058 33.4862C72.5628 33.9128 71.6701 34.5056 70.9504 35.275L72.4109 36.6413ZM74.3631 35.3373C75.17 35.0071 75.9988 34.8437 76.8563 34.8437V32.8437C75.7361 32.8437 74.6503 33.0589 73.6058 33.4862L74.3631 35.3373ZM76.8563 34.8437C77.7172 34.8437 78.4058 35.0306 78.9612 35.3639L79.9902 33.6489C79.0729 33.0985 78.0152 32.8437 76.8563 32.8437V34.8437ZM78.9796 35.3746C79.5232 35.6852 79.9428 36.1427 80.2404 36.7874L82.0563 35.9493C81.5965 34.953 80.901 34.1691 79.9719 33.6381L78.9796 35.3746ZM81.9458 36.9718C82.4224 36.342 83.071 35.8317 83.9232 35.451L83.1073 33.6249C81.9818 34.1278 81.0525 34.8379 80.3509 35.7649L81.9458 36.9718ZM83.9319 35.447C84.8106 35.0443 85.7309 34.8437 86.7027 34.8437V32.8437C85.4444 32.8437 84.2398 33.1059 83.0986 33.6289L83.9319 35.447ZM86.7027 34.8437C87.9743 34.8437 88.8504 35.228 89.4659 35.9049L90.9457 34.5596C89.878 33.3851 88.4188 32.8437 86.7027 32.8437V34.8437ZM89.4742 35.914C90.1098 36.5961 90.4997 37.6432 90.4997 39.2087H92.4997C92.4997 37.3237 92.027 35.7198 90.9374 34.5505L89.4742 35.914ZM90.4997 39.2087V48.2661H92.4997V39.2087H90.4997ZM90.5008 48.3128L90.7217 53.0466L92.7195 52.9534L92.4986 48.2195L90.5008 48.3128ZM91.7206 52H88.1545V54H91.7206V52ZM89.1537 53.04L89.343 48.3061L87.3446 48.2262L87.1553 52.96L89.1537 53.04ZM110.583 34.0646L111.523 34.4079L112.014 33.0646H110.583V34.0646ZM108.911 38.6406L107.971 38.2973L107.963 38.3198L107.956 38.3427L108.911 38.6406ZM104.429 53L105.359 53.368L105.373 53.3334L105.384 53.2979L104.429 53ZM99.3167 59.8168L98.6363 60.5496L99.2225 61.0939L99.8823 60.6415L99.3167 59.8168ZM96.6658 57.3552L95.7466 56.9612L95.4692 57.6087L95.9853 58.0879L96.6658 57.3552ZM96.8551 56.9133L96.5992 55.9466L96.128 56.0714L95.936 56.5194L96.8551 56.9133ZM99.2536 55.43L98.6014 54.672L98.592 54.6802L98.5827 54.6885L99.2536 55.43ZM101.21 53L102.114 53.4291L102.792 52H101.21V53ZM100.169 53L99.2119 53.2902L99.4272 54H100.169V53ZM95.8137 38.6406L96.7706 38.3504L96.7616 38.3207L96.7508 38.2916L95.8137 38.6406ZM94.1095 34.0646V33.0646H92.67L93.1724 34.4136L94.1095 34.0646ZM98.1806 34.0646L99.1571 33.8491L98.984 33.0646H98.1806V34.0646ZM99.1905 38.6406L98.214 38.8561L98.2193 38.8803L98.2259 38.9042L99.1905 38.6406ZM102.346 50.1912L101.382 50.4548L102.342 53.9678L103.31 50.4573L102.346 50.1912ZM105.534 38.6406L106.498 38.9066L106.505 38.8816L106.51 38.8561L105.534 38.6406ZM106.544 34.0646V33.0646H105.74L105.567 33.8491L106.544 34.0646ZM109.644 33.7213L107.971 38.2973L109.85 38.9839L111.523 34.4079L109.644 33.7213ZM107.956 38.3427L103.475 52.7021L105.384 53.2979L109.865 38.9385L107.956 38.3427ZM103.5 52.632C102.357 55.5171 100.764 57.6121 98.7512 58.992L99.8823 60.6415C102.288 58.9917 104.103 56.5423 105.359 53.368L103.5 52.632ZM99.9972 59.084L97.3462 56.6224L95.9853 58.0879L98.6363 60.5496L99.9972 59.084ZM97.5849 57.7491L97.7743 57.3072L95.936 56.5194L95.7466 56.9612L97.5849 57.7491ZM97.111 57.88C98.0471 57.6322 98.987 57.0199 99.9245 56.1716L98.5827 54.6885C97.753 55.4392 97.0938 55.8157 96.5992 55.9466L97.111 57.88ZM99.9059 56.1881C100.888 55.3432 101.64 54.4267 102.114 53.4291L100.307 52.5709C99.9814 53.2565 99.4289 53.96 98.6014 54.672L99.9059 56.1881ZM101.21 52H100.169V54H101.21V52ZM101.126 52.7098L96.7706 38.3504L94.8567 38.9309L99.2119 53.2902L101.126 52.7098ZM96.7508 38.2916L95.0466 33.7156L93.1724 34.4136L94.8766 38.9896L96.7508 38.2916ZM94.1095 35.0646H98.1806V33.0646H94.1095V35.0646ZM97.2041 34.2801L98.214 38.8561L100.167 38.4251L99.1571 33.8491L97.2041 34.2801ZM98.2259 38.9042L101.382 50.4548L103.311 49.9277L100.155 38.3771L98.2259 38.9042ZM103.31 50.4573L106.498 38.9066L104.57 38.3746L101.382 49.9252L103.31 50.4573ZM106.51 38.8561L107.52 34.2801L105.567 33.8491L104.557 38.4251L106.51 38.8561ZM106.544 35.0646H110.583V33.0646H106.544V35.0646Z" fill="#4CE59C"/>
</svg>